<?xml version="1.0" encoding="UTF-8"?>
<svg width="512px" height="512px" viewBox="0 0 512 512" version="1.1" xmlns="http://www.w3.org/2000/svg" xmlns:xlink="http://www.w3.org/1999/xlink">
    <title>comment</title>
    <defs>
        <filter id="filter-1">
            <feColorMatrix in="SourceGraphic" type="matrix" values="0 0 0 0 1.000000 0 0 0 0 1.000000 0 0 0 0 1.000000 0 0 0 1.000000 0"></feColorMatrix>
        </filter>
    </defs>
    <g id="symbols-tools" stroke="none" stroke-width="1" fill="none" fill-rule="evenodd">
        <g id="comment" transform="translate(-108.000000, -61.000000)" filter="url(#filter-1)">
            <g transform="translate(108.000000, 61.000000)">
                <path d="M497,0 L15,0 C6.716,0 0,6.716 0,15 L0,400.601 C0,408.885 6.716,415.601 15,415.601 L96.4,415.601 L96.4,497 C96.4,503.067 100.055,508.537 105.66,510.858 C107.516,511.627 109.465,512 111.397,512 C115.301,512 119.138,510.476 122.007,507.606 L214.013,415.6 L497,415.6 C505.284,415.6 512,408.884 512,400.6 L512,15 C512,6.716 505.284,0 497,0 Z M482,385.601 L207.8,385.601 C203.822,385.601 200.006,387.182 197.194,389.995 L126.401,460.787 L126.401,400.601 C126.401,392.317 119.685,385.601 111.401,385.601 L30,385.601 L30,30 L482,30 L482,385.601 Z" id="Shape" fill="#000000" fill-rule="nonzero"></path>
                <path d="M170.21,197.19 C167.41,194.4 163.55,192.8 159.6,192.8 C155.65,192.8 151.79,194.4 148.99,197.19 C146.2,199.99 144.6,203.85 144.6,207.8 C144.6,211.75 146.2,215.62 148.99,218.41 C151.79,221.2 155.65,222.8 159.6,222.8 C163.55,222.8 167.41,221.2 170.21,218.41 C173,215.61 174.6,211.75 174.6,207.8 C174.6,203.85 173,199.99 170.21,197.19 Z" id="Path" fill="#000000" fill-rule="nonzero"></path>
                <path d="M266.609,197.19 C263.809,194.4 259.95,192.8 256,192.8 C252.05,192.8 248.18,194.4 245.39,197.19 C242.6,199.99 241,203.85 241,207.8 C241,211.75 242.6,215.61 245.39,218.41 C248.18,221.2 252.05,222.8 256,222.8 C259.95,222.8 263.81,221.2 266.609,218.41 C269.399,215.61 271,211.75 271,207.8 C271,203.85 269.399,199.99 266.609,197.19 Z" id="Path" fill="#000000" fill-rule="nonzero"></path>
                <path d="M363.01,197.19 C360.21,194.4 356.35,192.8 352.4,192.8 C348.451,192.8 344.59,194.4 341.791,197.19 C339.001,199.99 337.4,203.85 337.4,207.8 C337.4,211.75 339.001,215.62 341.791,218.41 C344.59,221.2 348.45,222.8 352.4,222.8 C356.35,222.8 360.22,221.2 363.01,218.41 C365.8,215.61 367.4,211.75 367.4,207.8 C367.4,203.85 365.8,199.99 363.01,197.19 Z" id="Path" fill="#000000" fill-rule="nonzero"></path>
            </g>
        </g>
    </g>
</svg>