<?xml version="1.0" encoding="UTF-8"?>
<svg width="25px" height="21px" viewBox="0 0 25 21" version="1.1" xmlns="http://www.w3.org/2000/svg" xmlns:xlink="http://www.w3.org/1999/xlink">
    <title>comment</title>
    <g id="Page-1" stroke="none" stroke-width="1" fill="none" fill-rule="evenodd" fill-opacity="0.25">
        <g id="Main-page-no-user" transform="translate(-272.000000, -692.000000)" fill="#000000" fill-rule="nonzero">
            <g id="Workout-card-selected" transform="translate(56.000000, 452.000000)">
                <path d="M238.97821,240 L217.182702,240 C216.535032,240 216,240.535032 216,241.182702 L216,254.642977 C216,255.290647 216.535032,255.825679 217.182702,255.825679 L222.814616,255.825679 C223.180691,255.825679 223.518605,255.994636 223.743882,256.276232 L227.15119,260.556487 C227.629903,261.147838 228.531009,261.147838 228.981562,260.556487 L232.38887,256.276232 C232.614147,255.994636 232.952062,255.825679 233.318136,255.825679 L238.95005,255.825679 C239.59772,255.825679 240.132752,255.290647 240.132752,254.642977 L240.132752,241.182702 C240.160912,240.535032 239.62588,240 238.97821,240 Z M223.180691,249.940329 C222.223265,249.940329 221.434797,249.151861 221.434797,248.194435 C221.434797,247.23701 222.223265,246.448542 223.180691,246.448542 C224.138116,246.448542 224.926584,247.23701 224.926584,248.194435 C224.898424,249.18002 224.138116,249.940329 223.180691,249.940329 Z M228.080456,249.940329 C227.123031,249.940329 226.334563,249.151861 226.334563,248.194435 C226.334563,247.23701 227.123031,246.448542 228.080456,246.448542 C229.037881,246.448542 229.826349,247.23701 229.826349,248.194435 C229.826349,249.18002 229.037881,249.940329 228.080456,249.940329 Z M232.952062,249.940329 C231.994636,249.940329 231.206168,249.151861 231.206168,248.194435 C231.206168,247.23701 231.994636,246.448542 232.952062,246.448542 C233.909487,246.448542 234.697955,247.23701 234.697955,248.194435 C234.697955,249.18002 233.909487,249.940329 232.952062,249.940329 Z" id="comment"></path>
            </g>
        </g>
    </g>
</svg>