<?xml version="1.0" encoding="UTF-8"?>
<svg width="325px" height="365px" viewBox="0 0 325 365" version="1.1" xmlns="http://www.w3.org/2000/svg" xmlns:xlink="http://www.w3.org/1999/xlink">
    <title>star</title>
    <defs>
        <filter id="filter-1">
            <feColorMatrix in="SourceGraphic" type="matrix" values="0 0 0 0 1.000000 0 0 0 0 1.000000 0 0 0 0 1.000000 0 0 0 1.000000 0"></feColorMatrix>
        </filter>
    </defs>
    <g id="symbols-tools" stroke="none" stroke-width="1" fill="none" fill-rule="evenodd">
        <g id="star" transform="translate(-201.000000, -134.000000)" filter="url(#filter-1)">
            <g transform="translate(201.000000, 134.000000)">
                <path d="M292.969,192.261 L209.377,180.245 L171.761,104.49 C169.246,99.296 162.996,97.125 157.802,99.641 C155.686,100.666 153.977,102.374 152.953,104.49 L115.337,180.245 L31.745,192.261 C27.786,192.894 24.538,195.735 23.386,199.575 C22.37,203.275 23.36,207.237 25.998,210.024 L86.602,269.061 L72.496,352.13 C71.861,356.117 73.466,360.13 76.676,362.579 C79.837,364.984 84.089,365.389 87.647,363.624 L162.357,323.918 L237.067,363.624 L241.769,364.669 C244.057,364.863 246.324,364.107 248.038,362.579 C251.247,360.13 252.853,356.117 252.218,352.13 L238.112,269.061 L298.716,210.024 C301.354,207.237 302.345,203.275 301.328,199.575 C300.176,195.736 296.928,192.894 292.969,192.261 Z M219.304,258.09 C217.166,260.52 216.21,263.771 216.692,266.972 L228.186,334.89 L167.059,303.021 C164.083,301.609 160.631,301.609 157.655,303.021 L96.528,334.89 L108.022,266.972 C108.504,263.771 107.548,260.521 105.41,258.09 L55.777,210.025 L124.218,200.098 C127.582,199.507 130.48,197.382 132.055,194.351 L162.357,132.702 L192.659,194.351 C194.234,197.382 197.131,199.507 200.496,200.098 L268.937,210.025 L219.304,258.09 Z" id="Shape" fill="#000000" fill-rule="nonzero"></path>
                <path d="M162.357,73.143 C168.128,73.143 172.806,68.465 172.806,62.694 L172.806,10.449 C172.806,4.678 168.127,0 162.357,0 C156.587,0 151.908,4.678 151.908,10.449 L151.908,62.694 C151.908,68.465 156.586,73.143 162.357,73.143 Z" id="Path" fill="#000000" fill-rule="nonzero"></path>
                <path d="M320.136,55.38 C315.519,51.917 308.97,52.853 305.507,57.47 L274.16,99.266 C270.698,103.883 271.633,110.432 276.25,113.895 C278.04,115.287 280.252,116.025 282.519,115.985 C285.789,115.908 288.854,114.375 290.878,111.805 L322.225,70.009 C325.689,65.392 324.753,58.842 320.136,55.38 Z" id="Path" fill="#000000" fill-rule="nonzero"></path>
                <path d="M42.193,115.984 C44.46,116.024 46.673,115.286 48.462,113.894 C53.079,110.431 54.014,103.882 50.552,99.265 L19.206,57.469 C15.743,52.852 9.194,51.917 4.577,55.379 C-0.04,58.841 -0.975,65.391 2.487,70.008 L33.834,111.804 C35.858,114.374 38.923,115.906 42.193,115.984 Z" id="Path" fill="#000000" fill-rule="nonzero"></path>
            </g>
        </g>
    </g>
</svg>