<?xml version="1.0" encoding="UTF-8"?>
<svg width="21px" height="21px" viewBox="0 0 21 21" version="1.1" xmlns="http://www.w3.org/2000/svg" xmlns:xlink="http://www.w3.org/1999/xlink">
    <title>like</title>
    <g id="Page-1" stroke="none" stroke-width="1" fill="none" fill-rule="evenodd" fill-opacity="0.25">
        <g id="Main-page-no-user" transform="translate(-394.000000, -691.000000)" fill="#000000" fill-rule="nonzero">
            <g id="Workout-card-selected" transform="translate(56.000000, 452.000000)">
                <path d="M344.862069,248.965517 L340.724138,248.965517 C339.773793,248.965517 339,249.73931 339,250.689655 L339,258.275862 C339,259.226207 339.773793,260 340.724138,260 L343.482759,260 C344.433103,260 345.206897,259.226207 345.206897,258.275862 L345.206897,249.310345 C345.206897,249.12 345.052414,248.965517 344.862069,248.965517 Z M358.188966,251.296552 C358.682069,250.918621 359,250.323448 359,249.655172 C359,248.514483 358.071724,247.586207 356.931034,247.586207 L351.491724,247.586207 C351.678621,246.651034 352.103448,244.382759 352.103448,243.103448 C352.103448,241.303448 350.751034,240 349.83931,240 C349.042759,240 348.208276,240.357931 348.172414,240.373793 C348.046897,240.428276 347.965517,240.552414 347.965517,240.689655 L347.965517,243.724828 L345.868276,248.817241 C345.83931,248.887586 345.834483,248.965517 345.854483,249.03931 C345.883448,249.144138 345.896552,249.229655 345.896552,249.310345 L345.896552,258.275862 C345.896552,258.306207 345.891724,258.335862 345.887586,258.365517 L345.875172,258.470345 C345.864138,258.608966 345.937241,258.741379 346.061379,258.804828 C346.509655,259.035172 347.144828,259.310345 347.62069,259.310345 L356.241379,259.310345 C357.002069,259.310345 357.62069,258.691724 357.62069,257.931034 C357.62069,257.608276 357.508966,257.311034 357.322759,257.075862 C357.905517,256.79931 358.310345,256.204138 358.310345,255.517241 C358.310345,255.07931 358.146207,254.67931 357.876552,254.375172 C358.531724,254.131034 359,253.498621 359,252.758621 C359,252.142759 358.675862,251.602069 358.188966,251.296552 Z" id="like" transform="translate(349.000000, 250.000000) rotate(178.000000) translate(-349.000000, -250.000000) "></path>
            </g>
        </g>
    </g>
</svg>