<?xml version="1.0" encoding="UTF-8"?>
<svg width="512px" height="512px" viewBox="0 0 512 512" version="1.1" xmlns="http://www.w3.org/2000/svg" xmlns:xlink="http://www.w3.org/1999/xlink">
    <title>target</title>
    <defs>
        <filter id="filter-1">
            <feColorMatrix in="SourceGraphic" type="matrix" values="0 0 0 0 1.000000 0 0 0 0 1.000000 0 0 0 0 1.000000 0 0 0 1.000000 0"></feColorMatrix>
        </filter>
    </defs>
    <g id="symbols-tools" stroke="none" stroke-width="1" fill="none" fill-rule="evenodd">
        <g id="target" transform="translate(-108.000000, -61.000000)" filter="url(#filter-1)">
            <g transform="translate(108.000000, 61.000000)">
                <path d="M256,469.333333 C138.666667,469.333333 42.6666667,373.333333 42.6666667,256 C42.6666667,138.666667 138.666667,42.6666667 256,42.6666667 C373.333333,42.6666667 469.333333,138.666667 469.333333,256 C469.333333,373.333333 373.333333,469.333333 256,469.333333 Z M256,64 C149.333333,64 64,149.333333 64,256 C64,362.666667 149.333333,448 256,448 C362.666667,448 448,362.666667 448,256 C448,149.333333 362.666667,64 256,64 Z" id="Shape" fill="#000000" fill-rule="nonzero"></path>
                <path d="M256,106.666667 C249.6,106.666667 245.333333,102.4 245.333333,96 L245.333333,10.6666667 C245.333333,4.26666667 249.6,0 256,0 C262.4,0 266.666667,4.26666667 266.666667,10.6666667 L266.666667,96 C266.666667,102.4 262.4,106.666667 256,106.666667 Z" id="Path" fill="#000000" fill-rule="nonzero"></path>
                <path d="M256,106.666667 C249.6,106.666667 245.333333,102.4 245.333333,96 L245.333333,10.6666667 C245.333333,4.26666667 249.6,0 256,0 C262.4,0 266.666667,4.26666667 266.666667,10.6666667 L266.666667,96 C266.666667,102.4 262.4,106.666667 256,106.666667 Z" id="Path" fill="#000000" fill-rule="nonzero"></path>
                <path d="M501.333333,266.666667 L416,266.666667 C409.6,266.666667 405.333333,262.4 405.333333,256 C405.333333,249.6 409.6,245.333333 416,245.333333 L501.333333,245.333333 C507.733333,245.333333 512,249.6 512,256 C512,262.4 507.733333,266.666667 501.333333,266.666667 Z" id="Path" fill="#000000" fill-rule="nonzero"></path>
                <path d="M256,512 C249.6,512 245.333333,507.733333 245.333333,501.333333 L245.333333,416 C245.333333,409.6 249.6,405.333333 256,405.333333 C262.4,405.333333 266.666667,409.6 266.666667,416 L266.666667,501.333333 C266.666667,507.733333 262.4,512 256,512 Z" id="Path" fill="#000000" fill-rule="nonzero"></path>
                <path d="M96,266.666667 L10.6666667,266.666667 C4.26666667,266.666667 0,262.4 0,256 C0,249.6 4.26666667,245.333333 10.6666667,245.333333 L96,245.333333 C102.4,245.333333 106.666667,249.6 106.666667,256 C106.666667,262.4 102.4,266.666667 96,266.666667 Z" id="Path" fill="#000000" fill-rule="nonzero"></path>
                <path d="M256,320 C219.733333,320 192,292.266667 192,256 C192,219.733333 219.733333,192 256,192 C292.266667,192 320,219.733333 320,256 C320,292.266667 292.266667,320 256,320 Z M256,213.333333 C232.533333,213.333333 213.333333,232.533333 213.333333,256 C213.333333,279.466667 232.533333,298.666667 256,298.666667 C279.466667,298.666667 298.666667,279.466667 298.666667,256 C298.666667,232.533333 279.466667,213.333333 256,213.333333 Z" id="Shape" fill="#000000" fill-rule="nonzero"></path>
            </g>
        </g>
    </g>
</svg>