<?xml version="1.0" encoding="UTF-8"?>
<svg width="228px" height="141px" viewBox="0 0 228 141" version="1.1" xmlns="http://www.w3.org/2000/svg" xmlns:xlink="http://www.w3.org/1999/xlink">
    <title>gym (1)</title>
    <defs>
        <filter id="filter-1">
            <feColorMatrix in="SourceGraphic" type="matrix" values="0 0 0 0 1.000000 0 0 0 0 1.000000 0 0 0 0 1.000000 0 0 0 1.000000 0"></feColorMatrix>
        </filter>
    </defs>
    <g id="symbols-tools" stroke="none" stroke-width="1" fill="none" fill-rule="evenodd">
        <g id="gym-(1)" transform="translate(-108.000000, -159.000000)" filter="url(#filter-1)">
            <g transform="translate(108.000000, 159.000000)">
                <rect id="Rectangle" fill="#000000" fill-rule="nonzero" x="140" y="65" width="8" height="8"></rect>
                <rect id="Rectangle" fill="#000000" fill-rule="nonzero" x="110" y="65" width="8" height="8"></rect>
                <rect id="Rectangle" fill="#000000" fill-rule="nonzero" x="125" y="65" width="8" height="8"></rect>
                <rect id="Rectangle" fill="#000000" fill-rule="nonzero" x="95" y="65" width="8" height="8"></rect>
                <rect id="Rectangle" fill="#000000" fill-rule="nonzero" x="80" y="65" width="8" height="8"></rect>
                <path d="M216.6,49.540444 L212.800148,49.540444 L212.800148,34.2973335 C212.800148,27.9943053 207.685289,22.864889 201.400148,22.864889 L193.8,22.864889 C192.462281,22.864889 191.193141,23.139089 190.000148,23.5660194 L190.000148,11.4324445 C190.000148,5.12941631 184.885289,0 178.600148,0 L171,0 C164.714859,0 159.6,5.12941631 159.6,11.4324445 L159.6,49.540444 L68.4,49.540444 L68.4,11.4324445 C68.4,5.12941631 63.2851406,0 57,0 L49.3998516,0 C43.1147109,0 37.9998516,5.12941631 37.9998516,11.4324445 L37.9998516,23.5660194 C36.8068594,23.139089 35.5372734,22.864889 34.2,22.864889 L26.5998516,22.864889 C20.3147109,22.864889 15.1998516,27.9943053 15.1998516,34.2973335 L15.1998516,49.540444 L11.4,49.540444 C5.11485938,49.540444 0,54.6698603 0,60.9728885 L0,76.215999 C0,82.5190272 5.11485938,87.6484435 11.4,87.6484435 L15.1998516,87.6484435 L15.1998516,106.702666 C15.1998516,113.005695 20.3147109,118.135111 26.5998516,118.135111 L34.2,118.135111 C35.5377188,118.135111 36.8068594,117.860911 37.9998516,117.433981 L37.9998516,129.567555 C37.9998516,135.870584 43.1147109,141 49.3998516,141 L57,141 C63.2851406,141 68.4,135.870584 68.4,129.567555 L68.4,87.6484435 L159.6,87.6484435 L159.6,129.567555 C159.6,135.870584 164.714859,141 171,141 L178.600148,141 C184.885289,141 190.000148,135.870584 190.000148,129.567555 L190.000148,117.433981 C191.193141,117.860911 192.462727,118.135111 193.8,118.135111 L201.400148,118.135111 C207.685289,118.135111 212.800148,113.005695 212.800148,106.702666 L212.800148,87.6484435 L216.6,87.6484435 C222.885141,87.6484435 228,82.5190272 228,76.215999 L228,60.9728885 C228,54.6698603 222.885141,49.540444 216.6,49.540444 Z M15.1998516,80.0266649 L11.4,80.0266649 C9.30257813,80.0266649 7.60014844,78.3193901 7.60014844,76.215999 L7.60014844,60.9728885 C7.60014844,58.8694973 9.30257813,57.1622225 11.4,57.1622225 L15.1998516,57.1622225 L15.1998516,80.0266649 Z M37.9998516,106.702666 C37.9998516,108.806058 36.2974219,110.513332 34.2,110.513332 L26.5998516,110.513332 C24.5024297,110.513332 22.8,108.806058 22.8,106.702666 L22.8,83.8377775 L22.8,53.35111 L22.8,34.2968869 C22.8,32.1934958 24.5024297,30.486221 26.5998516,30.486221 L34.2,30.486221 C36.2974219,30.486221 37.9998516,32.1934958 37.9998516,34.2968869 L37.9998516,106.702666 Z M60.7998516,129.567555 C60.7998516,131.670947 59.0974219,133.378221 57,133.378221 L49.3998516,133.378221 C47.3024297,133.378221 45.6,131.670947 45.6,129.567555 L45.6,106.702666 L45.6,34.2968869 L45.6,11.4319979 C45.6,9.32860677 47.3024297,7.62133195 49.3998516,7.62133195 L57,7.62133195 C59.0974219,7.62133195 60.7998516,9.32860677 60.7998516,11.4319979 L60.7998516,129.567555 Z M159.6,80.0266649 L68.4,80.0266649 L68.4,57.1617759 L159.6,57.1617759 L159.6,80.0266649 Z M182.4,34.2968869 L182.4,106.70222 L182.4,129.567109 C182.4,131.6705 180.69757,133.377775 178.600148,133.377775 L171,133.377775 C168.902578,133.377775 167.200148,131.6705 167.200148,129.567109 L167.200148,11.4319979 C167.200148,9.32860677 168.902578,7.62133195 171,7.62133195 L178.600148,7.62133195 C180.69757,7.62133195 182.4,9.32860677 182.4,11.4319979 L182.4,34.2968869 Z M205.2,53.35111 L205.2,83.8377775 L205.2,106.702666 C205.2,108.806058 203.49757,110.513332 201.400148,110.513332 L193.8,110.513332 C191.702578,110.513332 190.000148,108.806058 190.000148,106.702666 L190.000148,34.2968869 C190.000148,32.1934958 191.702578,30.486221 193.8,30.486221 L201.400148,30.486221 C203.49757,30.486221 205.2,32.1934958 205.2,34.2968869 L205.2,53.35111 Z M220.399852,76.215999 C220.399852,78.3193901 218.697422,80.0266649 216.6,80.0266649 L212.800148,80.0266649 L212.800148,57.1617759 L216.6,57.1617759 C218.697422,57.1617759 220.399852,58.8690507 220.399852,60.9724419 L220.399852,76.215999 Z" id="Shape" fill="#000000" fill-rule="nonzero"></path>
            </g>
        </g>
    </g>
</svg>