<?xml version="1.0" encoding="UTF-8"?>
<svg width="20px" height="20px" viewBox="0 0 20 20" version="1.1" xmlns="http://www.w3.org/2000/svg" xmlns:xlink="http://www.w3.org/1999/xlink">
    <title>liked</title>
    <defs>
        <filter id="filter-1">
            <feColorMatrix in="SourceGraphic" type="matrix" values="0 0 0 0 0.027451 0 0 0 0 0.533333 0 0 0 0 0.607843 0 0 0 1.000000 0"></feColorMatrix>
        </filter>
    </defs>
    <g id="Page-2" stroke="none" stroke-width="1" fill="none" fill-rule="evenodd">
        <g id="liked" transform="translate(-2211.000000, -908.000000)" filter="url(#filter-1)">
            <g transform="translate(2211.000000, 908.000000)">
                <path d="M5.862069,8.965517 L1.724138,8.965517 C0.773793,8.965517 0,9.73931 0,10.689655 L0,18.275862 C0,19.226207 0.773793,20 1.724138,20 L4.482759,20 C5.433103,20 6.206897,19.226207 6.206897,18.275862 L6.206897,9.310345 C6.206897,9.12 6.052414,8.965517 5.862069,8.965517 Z M19.188966,11.296552 C19.682069,10.918621 20,10.323448 20,9.655172 C20,8.514483 19.071724,7.586207 17.931034,7.586207 L12.491724,7.586207 C12.678621,6.651034 13.103448,4.382759 13.103448,3.103448 C13.103448,1.303448 11.751034,0 10.83931,0 C10.042759,0 9.208276,0.357931 9.172414,0.373793 C9.046897,0.428276 8.965517,0.552414 8.965517,0.689655 L8.965517,3.724828 L6.868276,8.817241 C6.83931,8.887586 6.834483,8.965517 6.854483,9.03931 C6.883448,9.144138 6.896552,9.229655 6.896552,9.310345 L6.896552,18.275862 C6.896552,18.306207 6.891724,18.335862 6.887586,18.365517 L6.875172,18.470345 C6.864138,18.608966 6.937241,18.741379 7.061379,18.804828 C7.509655,19.035172 8.144828,19.310345 8.62069,19.310345 L17.241379,19.310345 C18.002069,19.310345 18.62069,18.691724 18.62069,17.931034 C18.62069,17.608276 18.508966,17.311034 18.322759,17.075862 C18.905517,16.79931 19.310345,16.204138 19.310345,15.517241 C19.310345,15.07931 19.146207,14.67931 18.876552,14.375172 C19.531724,14.131034 20,13.498621 20,12.758621 C20,12.142759 19.675862,11.602069 19.188966,11.296552 Z" id="like" fill="#FA6400" fill-rule="nonzero"></path>
            </g>
        </g>
    </g>
</svg>