<?xml version="1.0" encoding="UTF-8"?>
<svg width="512px" height="492px" viewBox="0 0 512 492" version="1.1" xmlns="http://www.w3.org/2000/svg" xmlns:xlink="http://www.w3.org/1999/xlink">
    <title>like</title>
    <defs>
        <filter id="filter-1">
            <feColorMatrix in="SourceGraphic" type="matrix" values="0 0 0 0 0.854902 0 0 0 0 1.000000 0 0 0 0 0.356863 0 0 0 1.000000 0"></feColorMatrix>
        </filter>
    </defs>
    <g id="symbols-tools" stroke="none" stroke-width="1" fill="none" fill-rule="evenodd">
        <g id="like" transform="translate(-108.000000, -71.000000)" filter="url(#filter-1)">
            <g transform="translate(108.000000, 71.000000)">
                <path d="M512,294 C512,281.179 506.901,269.232 498.112,260.421 C508.075,249.52 513.152,234.906 511.765,219.696 C509.269,192.581 484.842,171.333 456.128,171.333 L324.352,171.333 C330.88,151.514 341.333,115.184 341.333,86 C341.333,39.728 302.016,0.667 277.333,0.667 C255.189,0.667 239.338,13.147 238.677,13.659 C236.138,15.686 234.666,18.758 234.666,22 L234.666,94.341 L173.205,227.44 L170.666,228.741 L170.666,224.666 C170.666,218.778 165.887,213.999 159.999,213.999 L53.333,213.999 C23.915,214 0,237.915 0,267.333 L0,438 C0,467.419 23.915,491.333 53.333,491.333 L117.333,491.333 C140.394,491.333 160.106,476.613 167.53,456.069 C185.28,465.2 209.173,470 224,470 L419.819,470 C443.051,470 463.382,454.341 468.16,432.752 C470.613,421.616 469.184,410.416 464.32,400.688 C480.064,392.773 490.667,376.496 490.667,358 C490.667,350.448 488.939,343.216 485.675,336.688 C501.419,328.752 512,312.496 512,294 Z M467.008,320.325 C462.891,320.816 459.413,323.61 458.091,327.557 C456.79,331.504 457.878,335.834 460.907,338.693 C466.326,343.792 469.334,350.661 469.334,358 C469.334,371.461 459.158,382.768 445.697,384.325 C441.58,384.816 438.102,387.61 436.78,391.557 C435.479,395.504 436.567,399.834 439.596,402.693 C446.615,409.306 449.431,418.586 447.319,428.144 C444.695,440.048 433.132,448.667 419.82,448.667 L224,448.667 C206.677,448.667 177.621,440.539 167.552,430.448 C164.501,427.419 159.893,426.523 155.925,428.144 C151.936,429.787 149.333,433.691 149.333,438 C149.333,455.643 134.976,470 117.333,470 L53.333,470 C35.69,470 21.333,455.643 21.333,438 L21.333,267.333 C21.333,249.69 35.69,235.333 53.333,235.333 L149.333,235.333 L149.333,246 C149.333,249.691 151.253,253.125 154.41,255.088 C157.525,256.965 161.45,257.157 164.778,255.536 L186.111,244.869 C188.266,243.802 189.994,242.01 191.018,239.813 L255.018,101.146 C255.658,99.738 255.999,98.202 255.999,96.666 L255.999,27.781 C260.437,25.328 268.139,22 277.333,22 C289.024,22 320,51.056 320,86 C320,123.547 299.563,177.669 299.371,178.203 C298.134,181.467 298.56,185.158 300.544,188.059 C302.549,190.939 305.835,192.667 309.333,192.667 L456.128,192.667 C473.92,192.667 489.024,205.403 490.517,221.659 C491.648,233.819 485.802,245.382 475.328,251.846 C472.064,253.851 470.123,257.478 470.272,261.339 C470.421,265.2 472.64,268.656 476.053,270.427 C485.077,275.014 490.666,284.059 490.666,294 C490.666,307.461 480.491,318.768 467.008,320.325 Z" id="Shape" fill="#000000" fill-rule="nonzero"></path>
                <path d="M160,235.333 C154.112,235.333 149.333,240.112 149.333,246 L149.333,438 C149.333,443.888 154.112,448.667 160,448.667 C165.888,448.667 170.667,443.888 170.667,438 L170.667,246 C170.667,240.112 165.888,235.333 160,235.333 Z" id="Path" fill="#000000" fill-rule="nonzero"></path>
            </g>
        </g>
    </g>
</svg>