<?xml version="1.0" encoding="UTF-8"?>
<svg width="20px" height="20px" viewBox="0 0 20 20" version="1.1" xmlns="http://www.w3.org/2000/svg" xmlns:xlink="http://www.w3.org/1999/xlink">
    <title>like</title>
    <g id="Page-1" stroke="none" stroke-width="1" fill="none" fill-rule="evenodd" fill-opacity="0.25">
        <g id="Main-page-no-user" transform="translate(-332.000000, -689.000000)" fill="#000000" fill-rule="nonzero">
            <g id="Workout-card-selected" transform="translate(56.000000, 452.000000)">
                <path d="M281.862069,245.965517 L277.724138,245.965517 C276.773793,245.965517 276,246.73931 276,247.689655 L276,255.275862 C276,256.226207 276.773793,257 277.724138,257 L280.482759,257 C281.433103,257 282.206897,256.226207 282.206897,255.275862 L282.206897,246.310345 C282.206897,246.12 282.052414,245.965517 281.862069,245.965517 Z M295.188966,248.296552 C295.682069,247.918621 296,247.323448 296,246.655172 C296,245.514483 295.071724,244.586207 293.931034,244.586207 L288.491724,244.586207 C288.678621,243.651034 289.103448,241.382759 289.103448,240.103448 C289.103448,238.303448 287.751034,237 286.83931,237 C286.042759,237 285.208276,237.357931 285.172414,237.373793 C285.046897,237.428276 284.965517,237.552414 284.965517,237.689655 L284.965517,240.724828 L282.868276,245.817241 C282.83931,245.887586 282.834483,245.965517 282.854483,246.03931 C282.883448,246.144138 282.896552,246.229655 282.896552,246.310345 L282.896552,255.275862 C282.896552,255.306207 282.891724,255.335862 282.887586,255.365517 L282.875172,255.470345 C282.864138,255.608966 282.937241,255.741379 283.061379,255.804828 C283.509655,256.035172 284.144828,256.310345 284.62069,256.310345 L293.241379,256.310345 C294.002069,256.310345 294.62069,255.691724 294.62069,254.931034 C294.62069,254.608276 294.508966,254.311034 294.322759,254.075862 C294.905517,253.79931 295.310345,253.204138 295.310345,252.517241 C295.310345,252.07931 295.146207,251.67931 294.876552,251.375172 C295.531724,251.131034 296,250.498621 296,249.758621 C296,249.142759 295.675862,248.602069 295.188966,248.296552 Z" id="like"></path>
            </g>
        </g>
    </g>
</svg>