<?xml version="1.0" encoding="UTF-8"?>
<svg width="512px" height="512px" viewBox="0 0 512 512" version="1.1" xmlns="http://www.w3.org/2000/svg" xmlns:xlink="http://www.w3.org/1999/xlink">
    <title>strong</title>
    <defs>
        <filter id="filter-1">
            <feColorMatrix in="SourceGraphic" type="matrix" values="0 0 0 0 1.000000 0 0 0 0 1.000000 0 0 0 0 1.000000 0 0 0 1.000000 0"></feColorMatrix>
        </filter>
    </defs>
    <g id="symbols-tools" stroke="none" stroke-width="1" fill="none" fill-rule="evenodd">
        <g id="strong" transform="translate(-108.000000, -61.000000)" filter="url(#filter-1)">
            <g transform="translate(108.000000, 61.000000)">
                <path d="M428.847,22.809 C420.929,8.74 405.827,0 389.433,0 L256.961,0 C232.148,0 211.961,20.187 211.961,45 L211.961,105 C211.961,129.813 232.148,150 256.961,150 L346.961,150 C355.232,150 361.961,156.729 361.961,165 L361.961,282.833 C318.71,271.009 273.118,269.548 229.291,278.463 C195.898,246.51 148.603,233.511 101.374,245.32 C54.152,257.127 14.961,295.662 3.744,343.626 C-5.902,384.884 3.502,427.381 29.548,460.219 C55.647,493.126 94.434,512 135.961,512 C331.776,512 467.324,437.594 503.669,419.417 C508.751,416.876 511.961,411.682 511.961,406 L511.961,340.928 C511.961,229.416 483.22,119.412 428.847,22.809 Z M481.962,396.757 C433.23,421.303 309.867,482 135.961,482 C103.647,482 73.428,467.266 53.051,441.575 C32.731,415.955 25.406,382.743 32.956,350.455 C41.438,314.177 71.858,283.622 108.65,274.422 C138.858,266.868 169.143,272.034 193.598,288.175 C181.902,292.194 170.426,296.996 159.253,302.582 C151.843,306.287 148.84,315.297 152.545,322.707 C156.249,330.116 165.259,333.12 172.669,329.415 C243.922,293.789 328.998,293.788 400.253,329.415 C407.675,333.127 416.679,330.103 420.377,322.707 C424.082,315.297 421.079,306.287 413.669,302.582 C406.55,299.022 399.305,295.787 391.961,292.863 L391.961,165 C391.961,140.187 371.774,120 346.961,120 L331.961,120 L331.961,75 C331.961,66.716 325.245,60 316.961,60 L286.961,60 C278.677,60 271.961,66.716 271.961,75 C271.961,83.284 278.677,90 286.961,90 L301.961,90 L301.961,120 L256.961,120 C248.69,120 241.961,113.271 241.961,105 L241.961,45 C241.961,36.729 248.69,30 256.961,30 L389.434,30 C395.007,30 400.092,32.883 402.705,37.523 C454.556,129.644 481.962,234.559 481.962,340.928 L481.962,396.757 L481.962,396.757 Z" id="Shape" fill="#000000" fill-rule="nonzero"></path>
            </g>
        </g>
    </g>
</svg>