<?xml version="1.0" encoding="iso-8859-1"?>
<!-- Generator: Adobe Illustrator 19.0.0, SVG Export Plug-In . SVG Version: 6.00 Build 0)  -->
<svg version="1.1" id="Layer_1" xmlns="http://www.w3.org/2000/svg" xmlns:xlink="http://www.w3.org/1999/xlink" x="0px" y="0px"
	 viewBox="0 0 511.999 511.999" style="enable-background:new 0 0 511.999 511.999;" xml:space="preserve">
<path style="fill:#F0A037;" d="M511.996,255.403c0.144,64.93-23.883,124.265-63.631,169.487
	c-8.583,9.771-17.909,18.886-27.869,27.247c-42.413,35.63-96.563,57.736-155.83,59.712c-2.676,0.089-5.374,0.133-8.072,0.144
	c-2.842,0.011-5.663-0.033-8.483-0.122c-59.157-1.788-113.295-23.66-155.786-59.046c-9.97-8.294-19.308-17.343-27.913-27.047
	C24.463,380.733,0.148,321.51,0.003,256.58C-0.319,115.194,114.031,0.323,255.417,0.001
	C396.791-0.321,511.674,114.017,511.996,255.403z"/>
<path style="fill:#4D4D4D;" d="M287.113,126.567c5.963-25.47,28.809-44.434,56.097-44.434c45.002,0,81.487,36.486,81.487,81.495
	v172.82c0,21.973,17.818,39.791,39.791,39.791h11.014c0,0-54.724,36.842-110.239,12.415l-70.346-41.344"/>
<path style="fill:#518EBC;" d="M420.491,452.141c-17.609,14.8-37.239,27.258-58.424,36.917
	c-29.834,13.601-62.743,21.64-97.407,22.794c-2.676,0.089-5.374,0.133-8.072,0.144c-2.842,0.011-5.663-0.033-8.483-0.122
	c-34.652-1.044-67.573-8.982-97.44-22.495c-21.14-9.549-40.748-21.895-58.346-36.551c12.247-12.646,25.959-23.871,40.837-33.42
	c13.779-8.849,28.568-16.255,44.168-22.017c1.732-0.644,3.475-1.266,5.23-1.865c1.743-0.6,3.509-1.177,5.274-1.732
	c5.285-1.677,10.659-3.153,16.099-4.441c14.256-3.364,29.023-5.396,44.179-5.951c2.687-0.111,5.385-0.155,8.105-0.167
	c2.831-0.011,5.651,0.033,8.449,0.144c20.685,0.699,40.692,4.152,59.645,10.004c1.776,0.533,3.542,1.099,5.296,1.688
	c1.754,0.588,3.509,1.199,5.241,1.832c15.911,5.774,30.988,13.257,45.034,22.239C394.655,428.581,408.278,439.661,420.491,452.141z"
	/>
<path style="fill:#4783A8;" d="M230.297,384.753l-11.947,14.645c0,0-63.076,25.726-97.462,74.057
	c-10.004-6.218-19.552-13.124-28.568-20.629c29.878-30.822,68.372-53.272,111.607-63.476
	C212.544,387.317,221.337,385.774,230.297,384.753z"/>
<path style="fill:#E0B775;" d="M329.602,395.067c-9.526,31.621-38.872,54.66-73.602,54.66c-34.553,0-63.787-22.817-73.446-54.205
	c6.973-2.398,14.112-4.452,21.373-6.173c14.256-3.364,29.023-5.396,44.179-5.951c2.687-0.111,5.385-0.155,8.105-0.167
	c2.831-0.011,5.651,0.033,8.449,0.144C287.289,384.141,309.095,388.195,329.602,395.067z"/>
<path style="fill:#4783A8;" d="M334.843,396.899c-5.03,16.51-15.4,31.333-29.245,41.792c-14.378,10.848-31.533,16.588-49.597,16.588
	c-17.976,0-35.052-5.685-49.386-16.444c-13.801-10.359-24.193-25.059-29.29-41.447c1.732-0.644,3.475-1.266,5.23-1.865
	c1.743-0.6,3.509-1.177,5.274-1.732l0.033,0.1c9.26,30.078,36.64,50.285,68.139,50.285c31.211,0,59.29-20.851,68.283-50.707
	l0.022-0.089c1.776,0.533,3.542,1.099,5.296,1.688C331.357,395.656,333.111,396.266,334.843,396.899z"/>
<g>
	<path style="fill:#F9D387;" d="M420.491,452.141c-17.609,14.8-37.239,27.258-58.424,36.917c-1.244-5.585-1.899-11.403-1.899-17.365
		c0-20.119,7.428-38.494,19.708-52.55C394.655,428.581,408.278,439.661,420.491,452.141z"/>
	<path style="fill:#F9D387;" d="M152.632,471.693c0,6.073-0.677,12.002-1.965,17.687c-10.404-4.697-20.43-10.07-30.022-16.066
		c-0.022-0.011-0.033-0.011-0.044-0.022c-9.904-6.184-19.353-13.024-28.279-20.463c12.247-12.646,25.959-23.871,40.837-33.42
		c6.229,7.206,11.203,15.522,14.556,24.626C150.9,452.652,152.632,461.967,152.632,471.693z"/>
</g>
<path style="fill:#EFC881;" d="M147.713,444.036c-9.715,8.616-19.008,18.431-26.825,29.423c-0.078-0.044-0.155-0.1-0.244-0.144
	c-0.022-0.011-0.033-0.011-0.044-0.022c-9.904-6.184-19.353-13.024-28.279-20.463c12.247-12.646,25.959-23.871,40.837-33.42
	C139.386,426.615,144.36,434.931,147.713,444.036z"/>
<path style="fill:#E0B775;" d="M326.216,393.961c-17.598,24.993-40.692,40.581-66.074,41.725c-0.133,0.011-0.255,0.033-0.389,0.033
	c-0.877,0.044-1.765,0.055-2.654,0.055s-1.776-0.011-2.654-0.055c-0.122,0-0.255-0.022-0.378-0.033
	c-25.448-1.144-48.587-16.81-66.207-41.914c5.274-1.665,10.637-3.131,16.066-4.419c8.616-2.032,17.41-3.575,26.37-4.597
	c5.873-0.688,11.802-1.133,17.809-1.355c2.687-0.111,5.385-0.155,8.105-0.167c2.831-0.011,5.651,0.033,8.449,0.144
	C286.045,384.102,306.697,387.766,326.216,393.961z"/>
<g>
	<path style="fill:#EFC881;" d="M192.311,254.098c0-17.945-15.523-32.492-34.671-32.492s-34.671,14.547-34.671,32.492
		s15.523,45.099,34.671,45.099C176.787,299.197,192.311,272.043,192.311,254.098z"/>
	<path style="fill:#EFC881;" d="M389.03,254.098c0-17.945-15.523-32.492-34.671-32.492c-19.148,0-34.671,14.547-34.671,32.492
		s15.523,45.099,34.671,45.099C373.507,299.197,389.03,272.043,389.03,254.098z"/>
</g>
<path style="fill:#F9D387;" d="M373.55,250.595c0,19.528-2.452,38.244-6.949,55.597c-15.873,61.212-57.193,105.332-106.072,107.29
	c-0.145,0.014-0.29,0.029-0.435,0.029c-0.987,0.043-1.987,0.058-2.989,0.058s-2.002-0.014-2.989-0.058
	c-0.145,0-0.29-0.014-0.435-0.029c-48.88-1.959-90.2-46.08-106.072-107.29c-4.498-17.352-6.949-36.068-6.949-55.597
	c0-90.011,52.13-141.212,116.446-141.212S373.55,160.583,373.55,250.595z"/>
<g>
	<path style="fill:#EFC881;" d="M366.6,306.191c-15.873,61.212-57.193,105.332-106.072,107.29
		c22.459-1.741,66.549-36.335,70.307-54.136C334.55,341.704,363.22,309.238,366.6,306.191z"/>
	<path style="fill:#EFC881;" d="M147.608,306.191c15.873,61.212,57.193,105.332,106.072,107.29
		c-22.459-1.741-66.549-36.335-70.307-54.136C179.659,341.704,150.989,309.238,147.608,306.191z"/>
</g>
<g>
	<path style="fill:#4D4D4D;" d="M320.204,257.256v22.511c0,4.212-3.408,7.62-7.62,7.62c-4.063,0-7.381-3.179-7.6-7.193
		c-0.01-0.139-0.01-0.289-0.01-0.427v-22.511c0-4.212,3.408-7.62,7.61-7.62c2.106,0,4.014,0.854,5.384,2.225
		c0.984,0.984,1.699,2.235,2.026,3.626C320.135,256.053,320.204,256.65,320.204,257.256z"/>
	<path style="fill:#4D4D4D;" d="M199.41,287.386L199.41,287.386c-4.206,0-7.617-3.41-7.617-7.617v-22.518
		c0-4.206,3.41-7.617,7.617-7.617l0,0c4.206,0,7.617,3.41,7.617,7.617v22.518C207.026,283.976,203.617,287.386,199.41,287.386z"/>
</g>
<g>
	<path style="fill:#68635B;" d="M331.095,229.65c0-10.22-8.285-18.505-18.505-18.505c-10.22,0-18.505,8.285-18.505,18.505l0,0
		C304.304,219.431,320.874,219.431,331.095,229.65L331.095,229.65z"/>
	<path style="fill:#68635B;" d="M217.915,229.65c0-10.22-8.285-18.505-18.505-18.505c-10.22,0-18.505,8.285-18.505,18.505l0,0
		C191.126,219.431,207.695,219.431,217.915,229.65L217.915,229.65z"/>
</g>
<g>
	<path style="fill:#666666;" d="M320.199,257.256v22.511c0,4.212-3.408,7.62-7.62,7.62c-4.063,0-7.381-3.179-7.6-7.193
		c8.524-8.762,12.845-18.11,15.01-24.706C320.129,256.053,320.199,256.65,320.199,257.256z"/>
	<path style="fill:#666666;" d="M207.02,257.256v22.511c0,4.212-3.408,7.62-7.62,7.62c-4.064,0-7.381-3.179-7.6-7.193
		c8.524-8.762,12.845-18.11,15.01-24.706C206.95,256.053,207.02,256.65,207.02,257.256z"/>
</g>
<path style="fill:#4D4D4D;" d="M297.416,344.811c-0.011,0.111-0.011,0.211-0.022,0.322c-0.044,0.633-0.111,1.266-0.211,1.888
	c-0.078,0.489-0.167,0.966-0.278,1.443c-0.078,0.344-0.167,0.688-0.255,1.033c-0.366,1.321-0.855,2.609-1.466,3.864
	c-1.943,4.064-5.063,7.728-9.071,10.77c-7.572,5.729-18.253,9.304-30.111,9.304c-11.858,0-22.539-3.575-30.111-9.304
	c-4.008-3.042-7.128-6.706-9.071-10.77c-0.611-1.255-1.099-2.543-1.466-3.864c-0.089-0.344-0.178-0.688-0.255-1.033
	c-0.111-0.477-0.2-0.955-0.278-1.443c-0.1-0.622-0.167-1.255-0.211-1.888c-0.011-0.111-0.011-0.211-0.022-0.322
	c1.454,0.289,2.931,0.566,4.441,0.822c11.159,1.932,23.705,3.009,36.973,3.009c13.268,0,25.814-1.077,36.973-3.009
	C294.485,345.377,295.961,345.099,297.416,344.811z"/>
<path style="fill:#F2F2F2;" d="M297.416,344.811c-0.011,0.111-0.011,0.211-0.022,0.322c-0.044,0.633-0.111,1.266-0.211,1.888
	c-0.078,0.489-0.167,0.966-0.278,1.443c-0.078,0.344-0.167,0.688-0.255,1.033c-0.366,1.321-0.855,2.609-1.466,3.864
	c-3.997,0.622-8.161,1.155-12.458,1.577c-8.449,0.844-17.421,1.288-26.725,1.288c-9.304,0-18.276-0.444-26.725-1.288
	c-4.297-0.422-8.46-0.955-12.458-1.577c-0.611-1.255-1.099-2.543-1.466-3.864c-0.089-0.344-0.178-0.688-0.255-1.033
	c-0.111-0.477-0.2-0.955-0.278-1.443c-0.1-0.622-0.167-1.255-0.211-1.888c-0.011-0.111-0.011-0.211-0.022-0.322
	c1.454,0.289,2.931,0.566,4.441,0.822c11.159,1.932,23.705,3.009,36.973,3.009s25.814-1.077,36.973-3.009
	C294.485,345.377,295.961,345.099,297.416,344.811z"/>
<path style="fill:#FFFFFF;" d="M292.975,345.632c-1.81,2.587-4.13,4.952-6.862,7.028c-1.066,0.811-2.198,1.577-3.386,2.276
	c-8.449,0.844-17.421,1.288-26.725,1.288c-9.304,0-18.276-0.444-26.725-1.288c-1.188-0.699-2.321-1.466-3.386-2.276
	c-2.731-2.076-5.052-4.441-6.862-7.028c11.159,1.932,23.705,3.009,36.973,3.009C269.27,348.641,281.816,347.564,292.975,345.632z"/>
<path style="fill:#E0B775;" d="M246.117,291.476c0-32.691,4.425-52.266,9.883-52.266c5.458,0,9.883,19.577,9.883,52.266
	s-4.425,35.672-9.883,35.672C250.541,327.148,246.117,324.167,246.117,291.476z"/>
<path style="fill:#EFC881;" d="M277.765,381.175c0-4.541-9.743,0.484-21.763,0.484c-12.02,0-21.763-5.024-21.763-0.484
	c0,4.54,9.743,8.222,21.763,8.222C268.021,389.396,277.765,385.715,277.765,381.175z"/>
<g>
	<ellipse style="fill:#FCD99D;" cx="190.383" cy="303.833" rx="20.541" ry="8.513"/>
	<ellipse style="fill:#FCD99D;" cx="321.62" cy="303.833" rx="20.541" ry="8.513"/>
</g>
<path style="fill:#68635B;" d="M366.653,203.16H147.558c0-1.044,0.011-2.087,0.044-3.131
	c1.677-58.235,50.063-104.934,109.498-104.934C317.611,95.094,366.653,143.481,366.653,203.16z"/>
<path style="fill:#4D4D4D;" d="M196.267,178.733c0.255,13.235-3.764,20.796-10.37,24.427c-7.272,4.008-17.665,3.242-28.945,0
	c-3.064-0.877-6.195-1.932-9.349-3.131c1.677-58.235,50.063-104.934,109.498-104.934C257.1,95.094,194.979,112.093,196.267,178.733z
	"/>
<path style="fill:#518EBC;" d="M369.961,216.536H144.237c-3.531,0-6.207-3.175-5.618-6.651l5.851-34.364
	c0.466-2.731,2.842-4.741,5.618-4.741H364.12c2.776,0,5.152,2.01,5.618,4.741l5.851,34.364
	C376.178,213.36,373.503,216.536,369.961,216.536z"/>
<path style="fill:#4783A8;" d="M178.534,216.536h-34.297c-3.531,0-6.207-3.175-5.618-6.651l5.851-34.364
	c0.466-2.731,2.842-4.741,5.618-4.741h28.446C154.107,184.659,178.534,216.536,178.534,216.536z"/>
<path style="fill:#68635B;" d="M281.385,169.67c0,0,69.708,32.214,72.974,149.435c0,0,14.369-81.523-3.395-121.493
	c-17.765-39.971-51.074-45.892-51.074-45.892"/>
<g>
</g>
<g>
</g>
<g>
</g>
<g>
</g>
<g>
</g>
<g>
</g>
<g>
</g>
<g>
</g>
<g>
</g>
<g>
</g>
<g>
</g>
<g>
</g>
<g>
</g>
<g>
</g>
<g>
</g>
</svg>
