<?xml version="1.0" encoding="UTF-8"?>
<svg width="51px" height="65px" viewBox="0 0 51 65" version="1.1" xmlns="http://www.w3.org/2000/svg" xmlns:xlink="http://www.w3.org/1999/xlink">
    <title>favorite</title>
    <defs>
        <filter id="filter-1">
            <feColorMatrix in="SourceGraphic" type="matrix" values="0 0 0 0 0.854902 0 0 0 0 1.000000 0 0 0 0 0.356863 0 0 0 1.000000 0"></feColorMatrix>
        </filter>
    </defs>
    <g id="Page-1" stroke="none" stroke-width="1" fill="none" fill-rule="evenodd">
        <g id="favorite" transform="translate(-1345.000000, -257.000000)" filter="url(#filter-1)">
            <g transform="translate(1345.000000, 257.000000)">
                <path d="M23.6482648,33.4392216 C24.3924269,34.1863713 25.6242264,34.1874808 26.3694,33.4392216 L35.5742029,24.1963105 C38.8100313,20.9654828 38.8085142,15.71189 35.5701571,12.4822951 C32.668481,9.58972491 28.2113467,9.27131414 25.0088956,11.3416621 C22.5947304,9.78104257 20.0967427,10.0120537 20.4518822,10.0120537 C12.9996406,10.0120537 9.17402008,18.9368006 14.4447262,24.1975432 L23.6482648,33.4392216 Z M17.1591607,15.068042 C18.9567307,13.276288 21.8769919,13.2513871 23.6529426,15.0220616 C24.3957141,15.7625547 25.6200542,15.7641572 26.3644693,15.0220616 C28.1400407,13.2520035 31.0604283,13.2757949 32.8581248,15.0677954 C34.5718723,16.7769574 34.7993184,19.6793893 32.7596365,21.7130023 C32.5707513,21.9011149 34.1611039,20.3064724 25.0086427,29.4968698 C17.4464078,21.9030873 17.2719355,21.7270553 17.257649,21.7130023 C15.2177142,19.6764308 15.4471831,16.7754781 17.1591607,15.068042 Z" id="Shape" fill="#000000" fill-rule="nonzero"></path>
                <path d="M49.081902,0 L1.9182259,0 C0.858853678,0 0,0.852585647 0,1.90422643 L0,63.0509683 C0,64.6255096 1.82333766,65.5204961 3.08373996,64.5633049 L25.4985933,47.5392667 L47.9139582,64.6043093 C49.1744883,65.5640394 50.9994885,64.6684182 50.9994885,63.0933691 L51,1.90422643 C51,0.853220389 50.1412742,0 49.081902,0 Z M47.1631645,59.2333751 L26.6674323,43.6297629 C25.9858227,43.1106708 25.0293952,43.1007688 24.3346138,43.6283665 L3.83645181,59.1965601 L3.83645181,3.80845286 L47.1636761,3.80845286 L47.1631645,59.2333751 Z" id="Shape" fill="#000000" fill-rule="nonzero"></path>
            </g>
        </g>
    </g>
</svg>