<?xml version="1.0" encoding="UTF-8"?>
<svg width="34px" height="36px" viewBox="0 0 34 36" version="1.1" xmlns="http://www.w3.org/2000/svg" xmlns:xlink="http://www.w3.org/1999/xlink">
    <title>Shape</title>
    <g id="Page-1" stroke="none" stroke-width="1" fill="none" fill-rule="evenodd" fill-opacity="0.25">
        <g id="Main-page-user" transform="translate(-144.000000, -150.000000)" fill="#000000" fill-rule="nonzero">
            <g id="search-bar" transform="translate(104.000000, 125.000000)">
                <path d="M73.74843,59.1260862 L64.5618061,49.3809082 C69.4339961,43.3488857 68.9353306,34.3188834 63.4323976,28.9291962 C57.9294645,23.539509 49.3881815,23.7155976 44.0875674,29.3280125 C38.7869533,34.9404275 38.6206474,43.9841389 43.7109076,49.8107739 C48.8011677,55.6374089 57.3295031,56.1654076 63.0264133,51.0066183 L72.2301925,60.7336318 C72.3910813,60.9041743 72.6094008,61 72.8370586,61 C73.0647164,61 73.283036,60.9041743 73.4439248,60.7336318 L73.74843,60.4112145 C73.9094979,60.2408616 74,60.0096997 74,59.7686503 C74,59.5276009 73.9094979,59.296439 73.74843,59.1260862 Z M40.9444444,39 C40.9444444,31.8202983 46.4413928,26 53.2222222,26 C60.0030517,26 65.5,31.8202983 65.5,39 C65.5,46.1797017 60.0030517,52 53.2222222,52 C46.445471,51.9895858 40.9542801,46.1753836 40.9444444,39 Z" id="Shape"></path>
            </g>
        </g>
    </g>
</svg>