<?xml version="1.0" encoding="UTF-8"?>
<svg width="347px" height="427px" viewBox="0 0 347 427" version="1.1" xmlns="http://www.w3.org/2000/svg" xmlns:xlink="http://www.w3.org/1999/xlink">
    <title>bin</title>
    <defs>
        <filter id="filter-1">
            <feColorMatrix in="SourceGraphic" type="matrix" values="0 0 0 0 1.000000 0 0 0 0 1.000000 0 0 0 0 1.000000 0 0 0 1.000000 0"></feColorMatrix>
        </filter>
    </defs>
    <g id="Page-1" stroke="none" stroke-width="1" fill="none" fill-rule="evenodd">
        <g id="bin" transform="translate(-699.000000, -680.000000)" filter="url(#filter-1)">
            <g transform="translate(699.000000, 680.000000)">
                <path d="M232.398438,154.703125 C226.875,154.703125 222.398438,159.179688 222.398438,164.703125 L222.398438,353.703125 C222.398438,359.222656 226.875,363.703125 232.398438,363.703125 C237.921875,363.703125 242.398438,359.222656 242.398438,353.703125 L242.398438,164.703125 C242.398438,159.179688 237.921875,154.703125 232.398438,154.703125 Z" id="Path" fill="#000000" fill-rule="nonzero"></path>
                <path d="M114.398438,154.703125 C108.875,154.703125 104.398438,159.179688 104.398438,164.703125 L104.398438,353.703125 C104.398438,359.222656 108.875,363.703125 114.398438,363.703125 C119.921875,363.703125 124.398438,359.222656 124.398438,353.703125 L124.398438,164.703125 C124.398438,159.179688 119.921875,154.703125 114.398438,154.703125 Z" id="Path" fill="#000000" fill-rule="nonzero"></path>
                <path d="M28.398438,127.121094 L28.398438,373.5 C28.398438,388.0625 33.738281,401.738281 43.066406,411.550781 C52.351562,421.390625 65.273438,426.976562 78.796875,427 L268,427 C281.527344,426.976562 294.449219,421.390625 303.730469,411.550781 C313.058594,401.738281 318.398438,388.0625 318.398438,373.5 L318.398438,127.121094 C336.941406,122.199219 348.957031,104.285156 346.476562,85.257812 C343.992188,66.234375 327.785156,52.003906 308.597656,52 L257.398438,52 L257.398438,39.5 C257.457031,28.988281 253.300781,18.894531 245.859375,11.46875 C238.417969,4.046875 228.308594,-0.0859375 217.796875,-0.00131391798 L129,-0.00131391798 C118.488281,-0.0859375 108.378906,4.046875 100.9375,11.46875 C93.496094,18.894531 89.339844,28.988281 89.398438,39.5 L89.398438,52 L38.199219,52 C19.011719,52.003906 2.804688,66.234375 0.320312,85.257812 C-2.160156,104.285156 9.855469,122.199219 28.398438,127.121094 Z M268,407 L78.796875,407 C61.699219,407 48.398438,392.3125 48.398438,373.5 L48.398438,128 L298.398438,128 L298.398438,373.5 C298.398438,392.3125 285.097656,407 268,407 Z M109.398438,39.5 C109.332031,34.292969 111.378906,29.28125 115.074219,25.605469 C118.765625,21.929688 123.789062,19.910156 129,20 L217.796875,20 C223.007812,19.910156 228.03125,21.929688 231.722656,25.605469 C235.417969,29.277344 237.464844,34.292969 237.398438,39.5 L237.398438,52 L109.398438,52 L109.398438,39.5 Z M38.199219,72 L308.597656,72 C318.539062,72 326.597656,80.058594 326.597656,90 C326.597656,99.941406 318.539062,108 308.597656,108 L38.199219,108 C28.257812,108 20.199219,99.941406 20.199219,90 C20.199219,80.058594 28.257812,72 38.199219,72 Z" id="Shape" fill="#000000" fill-rule="nonzero"></path>
                <path d="M173.398438,154.703125 C167.875,154.703125 163.398438,159.179688 163.398438,164.703125 L163.398438,353.703125 C163.398438,359.222656 167.875,363.703125 173.398438,363.703125 C178.921875,363.703125 183.398438,359.222656 183.398438,353.703125 L183.398438,164.703125 C183.398438,159.179688 178.921875,154.703125 173.398438,154.703125 Z" id="Path" fill="#000000" fill-rule="nonzero"></path>
            </g>
        </g>
    </g>
</svg>